<svg xmlns="http://www.w3.org/2000/svg" viewBox="0 0 64 64"><linearGradient id="uMR6MUw1gkUx8pkaq4P7Ea" x1="150.942" x2="97" y1="102" y2="102" gradientTransform="matrix(0 -1 -1 0 134 156)" gradientUnits="userSpaceOnUse" spreadMethod="reflect"><stop offset="0" stop-color="#1a6dff"></stop><stop offset="1" stop-color="#c822ff"></stop></linearGradient><path fill="url(#uMR6MUw1gkUx8pkaq4P7Ea)" d="M17.024,41H11.08c-0.68,0-1.36,0.3-1.73,0.87C9.12,42.22,9,42.61,9,43 c0,0.43,0.15,0.86,0.43,1.22l10.41,13.25C20.6,58.44,21.75,59,23,59s2.4-0.56,3.17-1.53l10.4-13.25C36.85,43.86,37,43.43,37,43 c0-0.39-0.12-0.78-0.35-1.13C36.28,41.3,35.6,41,34.92,41h-5.896c0.505-12.623,10.509-23.046,23.196-23.939 c1.558-0.109,2.78-1.42,2.78-2.983V8.065c0-0.823-0.344-1.62-0.944-2.187c-0.599-0.565-1.415-0.863-2.237-0.815 C32.628,6.179,17.536,21.874,17.024,41z M52.684,7.334C52.888,7.526,53,7.786,53,8.065v6.013c0,0.519-0.404,0.952-0.921,0.989 C38.35,16.032,27.531,27.332,27.024,41H27v2h7.92c0.02,0,0.04,0,0.06,0.01L24.6,56.23C24.21,56.73,23.64,57,23,57 c-0.63,0-1.21-0.28-1.59-0.77L11.02,43.01C11.04,43,11.06,43,11.08,43H19v-1C19,23.481,33.467,8.134,51.935,7.06 C52.214,7.044,52.479,7.141,52.684,7.334z"></path><linearGradient id="uMR6MUw1gkUx8pkaq4P7Eb" x1="145.86" x2="101.995" y1="100" y2="100" gradientTransform="matrix(0 -1 -1 0 134 156)" gradientUnits="userSpaceOnUse" spreadMethod="reflect"><stop offset="0" stop-color="#6dc7ff"></stop><stop offset="1" stop-color="#e6abff"></stop></linearGradient><path fill="url(#uMR6MUw1gkUx8pkaq4P7Eb)" d="M22,42v3h-4c-0.82,0-1.29,0.94-0.8,1.6l5,7c0.4,0.54,1.2,0.54,1.6,0l5-7 c0.49-0.66,0.02-1.6-0.8-1.6h-4v-3c0-15.53,11.86-28.34,27-29.84v-2.02C34.76,11.66,22,25.37,22,42z"></path></svg>